<?xml version="1.0" standalone="no"?>
<!DOCTYPE svg PUBLIC "-//W3C//DTD SVG 20010904//EN"
 "http://www.w3.org/TR/2001/REC-SVG-20010904/DTD/svg10.dtd">
<svg version="1.0" xmlns="http://www.w3.org/2000/svg"
 width="196.000000pt" height="196.000000pt" viewBox="0 0 196.000000 196.000000"
 preserveAspectRatio="xMidYMid meet">
<metadata>
Created by potrace 1.14, written by Peter Selinger 2001-2017
</metadata>
<g transform="translate(0.000000,196.000000) scale(0.100000,-0.100000)"
fill="#000000" stroke="none">
<path d="M1085 1812 c-11 -3 -29 -15 -41 -27 -26 -28 -62 -48 -74 -40 -5 3
-11 1 -15 -5 -3 -5 -14 -10 -25 -10 -22 0 -90 -58 -90 -77 0 -8 -4 -11 -10 -8
-5 3 -18 1 -28 -4 -11 -6 -32 -12 -48 -15 -37 -7 -107 -37 -116 -51 -5 -6 -8
-6 -8 0 0 5 -7 -1 -16 -13 -8 -12 -22 -22 -29 -22 -8 0 -30 -15 -50 -34 -19
-19 -35 -33 -35 -30 0 7 -78 -81 -81 -91 -2 -5 -11 -19 -22 -30 -10 -11 -25
-33 -33 -48 -21 -39 -46 -67 -62 -67 -54 0 -161 -131 -138 -169 4 -5 2 -12 -3
-15 -13 -8 -6 -62 13 -90 10 -17 15 -45 14 -88 -1 -35 2 -76 6 -93 11 -43 21
-110 30 -193 3 -30 8 -58 11 -63 6 -8 17 -76 18 -106 0 -7 5 -13 10 -13 5 0 7
-11 5 -25 -3 -14 1 -30 8 -36 7 -6 11 -16 8 -24 -6 -15 33 -55 55 -56 9 0 300
-1 646 -2 549 -2 632 0 649 13 14 11 17 11 12 2 -7 -11 -4 -12 12 -3 12 6 24
16 27 21 7 11 17 56 18 78 0 6 3 12 6 12 3 0 7 10 7 23 1 12 4 33 8 47 6 25
12 53 22 100 2 14 7 45 9 70 4 42 6 56 20 118 16 70 15 61 13 166 0 22 5 42
13 47 8 5 10 9 5 9 -5 0 -4 6 2 13 13 15 24 87 13 87 -3 0 -8 12 -9 26 -4 52
-83 134 -144 150 -5 1 -11 3 -15 4 -5 1 -12 2 -16 1 -5 -1 -6 3 -2 9 3 5 1 10
-4 10 -6 0 -10 3 -9 8 2 12 -15 46 -34 66 -10 11 -24 32 -30 48 -7 16 -21 31
-30 34 -9 3 -20 14 -23 25 -4 10 -10 19 -14 19 -5 0 -25 16 -45 35 -21 19 -41
33 -46 30 -5 -3 -10 -2 -12 3 -10 24 -101 73 -163 87 -60 14 -75 23 -111 61
-23 24 -48 44 -54 44 -10 0 -9 4 0 16 14 16 76 45 94 43 29 -3 47 2 44 14 -5
12 -71 17 -113 9z"/>
</g>
</svg>
